<svg id="visual" viewBox="0 0 3840 2160" width="3840" height="2160" xmlns="http://www.w3.org/2000/svg" xmlns:xlink="http://www.w3.org/1999/xlink" version="1.1"><path d="M0 1426L91.5 1430C183 1434 366 1442 548.8 1418.3C731.7 1394.7 914.3 1339.3 1097.2 1336.3C1280 1333.3 1463 1382.7 1645.8 1411.8C1828.7 1441 2011.3 1450 2194.2 1426.3C2377 1402.7 2560 1346.3 2742.8 1354.5C2925.7 1362.7 3108.3 1435.3 3291.2 1442C3474 1448.7 3657 1389.3 3748.5 1359.7L3840 1330L3840 2161L3748.5 2161C3657 2161 3474 2161 3291.2 2161C3108.3 2161 2925.7 2161 2742.8 2161C2560 2161 2377 2161 2194.2 2161C2011.3 2161 1828.7 2161 1645.8 2161C1463 2161 1280 2161 1097.2 2161C914.3 2161 731.7 2161 548.8 2161C366 2161 183 2161 91.5 2161L0 2161Z" fill="#001220"></path><path d="M0 1536L91.5 1517.7C183 1499.3 366 1462.7 548.8 1465.5C731.7 1468.3 914.3 1510.7 1097.2 1513C1280 1515.3 1463 1477.7 1645.8 1459C1828.7 1440.3 2011.3 1440.7 2194.2 1478.7C2377 1516.7 2560 1592.3 2742.8 1616.7C2925.7 1641 3108.3 1614 3291.2 1585.8C3474 1557.7 3657 1528.3 3748.5 1513.7L3840 1499L3840 2161L3748.5 2161C3657 2161 3474 2161 3291.2 2161C3108.3 2161 2925.7 2161 2742.8 2161C2560 2161 2377 2161 2194.2 2161C2011.3 2161 1828.7 2161 1645.8 2161C1463 2161 1280 2161 1097.2 2161C914.3 2161 731.7 2161 548.8 2161C366 2161 183 2161 91.5 2161L0 2161Z" fill="#0a3347"></path><path d="M0 1561L91.5 1585.5C183 1610 366 1659 548.8 1661.8C731.7 1664.7 914.3 1621.3 1097.2 1608.8C1280 1596.3 1463 1614.7 1645.8 1639.3C1828.7 1664 2011.3 1695 2194.2 1681.3C2377 1667.7 2560 1609.3 2742.8 1581.5C2925.7 1553.7 3108.3 1556.3 3291.2 1572.8C3474 1589.3 3657 1619.7 3748.5 1634.8L3840 1650L3840 2161L3748.5 2161C3657 2161 3474 2161 3291.2 2161C3108.3 2161 2925.7 2161 2742.8 2161C2560 2161 2377 2161 2194.2 2161C2011.3 2161 1828.7 2161 1645.8 2161C1463 2161 1280 2161 1097.2 2161C914.3 2161 731.7 2161 548.8 2161C366 2161 183 2161 91.5 2161L0 2161Z" fill="#0a5771"></path><path d="M0 1887L91.5 1864.2C183 1841.3 366 1795.7 548.8 1791C731.7 1786.3 914.3 1822.7 1097.2 1810.5C1280 1798.3 1463 1737.7 1645.8 1704.3C1828.7 1671 2011.3 1665 2194.2 1699.3C2377 1733.7 2560 1808.3 2742.8 1846.2C2925.7 1884 3108.3 1885 3291.2 1848C3474 1811 3657 1736 3748.5 1698.5L3840 1661L3840 2161L3748.5 2161C3657 2161 3474 2161 3291.2 2161C3108.3 2161 2925.7 2161 2742.8 2161C2560 2161 2377 2161 2194.2 2161C2011.3 2161 1828.7 2161 1645.8 2161C1463 2161 1280 2161 1097.2 2161C914.3 2161 731.7 2161 548.8 2161C366 2161 183 2161 91.5 2161L0 2161Z" fill="#007f99"></path><path d="M0 1942L91.5 1936.7C183 1931.3 366 1920.7 548.8 1899.8C731.7 1879 914.3 1848 1097.2 1841.3C1280 1834.7 1463 1852.3 1645.8 1850C1828.7 1847.7 2011.3 1825.3 2194.2 1843.7C2377 1862 2560 1921 2742.8 1924.7C2925.7 1928.3 3108.3 1876.7 3291.2 1863.7C3474 1850.7 3657 1876.3 3748.5 1889.2L3840 1902L3840 2161L3748.5 2161C3657 2161 3474 2161 3291.2 2161C3108.3 2161 2925.7 2161 2742.8 2161C2560 2161 2377 2161 2194.2 2161C2011.3 2161 1828.7 2161 1645.8 2161C1463 2161 1280 2161 1097.2 2161C914.3 2161 731.7 2161 548.8 2161C366 2161 183 2161 91.5 2161L0 2161Z" fill="#00aabf"></path><path d="M0 1940L91.5 1952.8C183 1965.7 366 1991.3 548.8 2009C731.7 2026.7 914.3 2036.3 1097.2 2026.7C1280 2017 1463 1988 1645.8 1971.3C1828.7 1954.7 2011.3 1950.3 2194.2 1954C2377 1957.7 2560 1969.3 2742.8 1985.7C2925.7 2002 3108.3 2023 3291.2 2032C3474 2041 3657 2038 3748.5 2036.5L3840 2035L3840 2161L3748.5 2161C3657 2161 3474 2161 3291.2 2161C3108.3 2161 2925.7 2161 2742.8 2161C2560 2161 2377 2161 2194.2 2161C2011.3 2161 1828.7 2161 1645.8 2161C1463 2161 1280 2161 1097.2 2161C914.3 2161 731.7 2161 548.8 2161C366 2161 183 2161 91.5 2161L0 2161Z" fill="#1dd7e1"></path></svg>